<svg xmlns="http://www.w3.org/2000/svg" width="1920" height="1080"><path d="M186,1283L-218,1340L309,1283Z" fill="#7b9693" stroke="#7b9693" stroke-width="1.51"/><path d="M309,1283L-218,1340L455,1285Z" fill="#789491" stroke="#789491" stroke-width="1.51"/><path d="M-184,-213L33,-206L687,-260Z" fill="#ede6f2" stroke="#ede6f2" stroke-width="1.51"/><path d="M538,1288L455,1285L698,1302Z" fill="#628a8d" stroke="#628a8d" stroke-width="1.51"/><path d="M455,1285L-218,1340L698,1302Z" fill="#71908f" stroke="#71908f" stroke-width="1.51"/><path d="M1239,1281L855,1293L1494,1295Z" fill="#287480" stroke="#287480" stroke-width="1.51"/><path d="M855,1293L698,1302L1494,1295Z" fill="#367a83" stroke="#367a83" stroke-width="1.51"/><path d="M894,-265L1464,-200L1607,-209Z" fill="#9fbed6" stroke="#9fbed6" stroke-width="1.51"/><path d="M698,1302L-218,1340L1820,1317Z" fill="#4f8186" stroke="#4f8186" stroke-width="1.51"/><path d="M1494,1295L698,1302L1820,1317Z" fill="#1c6e77" stroke="#1c6e77" stroke-width="1.51"/><path d="M1614,1280L1494,1295L1820,1317Z" fill="#04665e" stroke="#04665e" stroke-width="1.51"/><path d="M1970,891L2032,1043L2082,853Z" fill="#096c6a" stroke="#096c6a" stroke-width="1.51"/><path d="M2032,1043L2065,1177L2082,853Z" fill="#04665c" stroke="#04665c" stroke-width="1.51"/><path d="M2047,-11L2053,111L2111,188Z" fill="#71918f" stroke="#71918f" stroke-width="1.51"/><path d="M2111,188L1929,293L2112,387Z" fill="#60898c" stroke="#60898c" stroke-width="1.51"/><path d="M1929,293L1967,383L2112,387Z" fill="#598a8e" stroke="#598a8e" stroke-width="1.51"/><path d="M1967,383L2035,536L2112,387Z" fill="#4c8389" stroke="#4c8389" stroke-width="1.51"/><path d="M1960,641L2082,853L2125,729Z" fill="#22717f" stroke="#22717f" stroke-width="1.51"/><path d="M2035,536L1960,641L2125,729Z" fill="#307883" stroke="#307883" stroke-width="1.51"/><path d="M2082,853L2065,1177L2125,729Z" fill="#0b6867" stroke="#0b6867" stroke-width="1.51"/><path d="M2112,387L2035,536L2125,729Z" fill="#387a83" stroke="#387a83" stroke-width="1.51"/><path d="M1607,-209L1774,-207L2126,-236Z" fill="#8baea7" stroke="#8baea7" stroke-width="1.51"/><path d="M894,-265L1607,-209L2126,-236Z" fill="#94b9c1" stroke="#94b9c1" stroke-width="1.51"/><path d="M1774,-207L1963,-160L2126,-236Z" fill="#86a59e" stroke="#86a59e" stroke-width="1.51"/><path d="M1980,-77L2047,-11L2126,-236Z" fill="#7f9a95" stroke="#7f9a95" stroke-width="1.51"/><path d="M1963,-160L1980,-77L2126,-236Z" fill="#829e98" stroke="#829e98" stroke-width="1.51"/><path d="M2047,-11L2111,188L2126,-236Z" fill="#789390" stroke="#789390" stroke-width="1.51"/><path d="M2112,387L2125,729L2126,-236Z" fill="#5d8487" stroke="#5d8487" stroke-width="1.51"/><path d="M2111,188L2112,387L2126,-236Z" fill="#6f8d8c" stroke="#6f8d8c" stroke-width="1.51"/><path d="M1960,641L1970,891L2082,853Z" fill="#1d737c" stroke="#1d737c" stroke-width="1.51"/><path d="M1955,145L1929,293L2111,188Z" fill="#6a9192" stroke="#6a9192" stroke-width="1.51"/><path d="M2053,111L1955,145L2111,188Z" fill="#6e9190" stroke="#6e9190" stroke-width="1.51"/><path d="M1970,891L1932,962L2032,1043Z" fill="#056e68" stroke="#056e68" stroke-width="1.51"/><path d="M1986,549L1960,641L2035,536Z" fill="#387f88" stroke="#387f88" stroke-width="1.51"/><path d="M1967,383L1986,549L2035,536Z" fill="#44838b" stroke="#44838b" stroke-width="1.51"/><path d="M2047,-11L1955,145L2053,111Z" fill="#749593" stroke="#749593" stroke-width="1.51"/><path d="M1898,1103L2046,1245L2065,1177Z" fill="#01614f" stroke="#01614f" stroke-width="1.51"/><path d="M2032,1043L1898,1103L2065,1177Z" fill="#036557" stroke="#036557" stroke-width="1.51"/><path d="M1830,-7L1955,145L1980,-77Z" fill="#7c9e9b" stroke="#7c9e9b" stroke-width="1.51"/><path d="M1980,-77L1955,145L2047,-11Z" fill="#799996" stroke="#799996" stroke-width="1.51"/><path d="M1898,1103L1936,1318L2046,1245Z" fill="#015f4d" stroke="#015f4d" stroke-width="1.51"/><path d="M1960,641L1823,894L1970,891Z" fill="#1d787f" stroke="#1d787f" stroke-width="1.51"/><path d="M1932,962L1898,1103L2032,1043Z" fill="#046c62" stroke="#046c62" stroke-width="1.51"/><path d="M1344,1275L1239,1281L1494,1295Z" fill="#1b7077" stroke="#1b7077" stroke-width="1.51"/><path d="M1898,1103L1820,1317L1936,1318Z" fill="#016250" stroke="#016250" stroke-width="1.51"/><path d="M1821,224L1929,293L1955,145Z" fill="#6b9798" stroke="#6b9798" stroke-width="1.51"/><path d="M1740,697L1823,894L1960,641Z" fill="#257e8d" stroke="#257e8d" stroke-width="1.51"/><path d="M1967,383L1774,500L1986,549Z" fill="#498a91" stroke="#498a91" stroke-width="1.51"/><path d="M1774,500L1960,641L1986,549Z" fill="#3a868e" stroke="#3a868e" stroke-width="1.51"/><path d="M894,-265L1181,-173L1464,-200Z" fill="#a7c3de" stroke="#a7c3de" stroke-width="1.51"/><path d="M1830,-7L1790,117L1955,145Z" fill="#79a09e" stroke="#79a09e" stroke-width="1.51"/><path d="M1963,-160L1830,-7L1980,-77Z" fill="#82a29d" stroke="#82a29d" stroke-width="1.51"/><path d="M1779,337L1774,500L1967,383Z" fill="#559197" stroke="#559197" stroke-width="1.51"/><path d="M1823,894L1932,962L1970,891Z" fill="#0d7572" stroke="#0d7572" stroke-width="1.51"/><path d="M1774,-207L1830,-7L1963,-160Z" fill="#86a9a3" stroke="#86a9a3" stroke-width="1.51"/><path d="M1929,293L1779,337L1967,383Z" fill="#5f9295" stroke="#5f9295" stroke-width="1.51"/><path d="M1774,500L1740,697L1960,641Z" fill="#368793" stroke="#368793" stroke-width="1.51"/><path d="M1738,1149L1820,1317L1898,1103Z" fill="#026a5a" stroke="#026a5a" stroke-width="1.51"/><path d="M1790,117L1821,224L1955,145Z" fill="#739d9c" stroke="#739d9c" stroke-width="1.51"/><path d="M1772,1032L1898,1103L1932,962Z" fill="#047267" stroke="#047267" stroke-width="1.51"/><path d="M1823,894L1772,1032L1932,962Z" fill="#057672" stroke="#057672" stroke-width="1.51"/><path d="M1821,224L1779,337L1929,293Z" fill="#66979b" stroke="#66979b" stroke-width="1.51"/><path d="M1772,1032L1738,1149L1898,1103Z" fill="#047165" stroke="#047165" stroke-width="1.51"/><path d="M1181,-173L1317,-168L1464,-200Z" fill="#9dbcd5" stroke="#9dbcd5" stroke-width="1.51"/><path d="M1738,1149L1614,1280L1820,1317Z" fill="#03685c" stroke="#03685c" stroke-width="1.51"/><path d="M1624,979L1772,1032L1823,894Z" fill="#047979" stroke="#047979" stroke-width="1.51"/><path d="M1740,697L1638,841L1823,894Z" fill="#1e808d" stroke="#1e808d" stroke-width="1.51"/><path d="M1774,-207L1680,-94L1830,-7Z" fill="#88abaa" stroke="#88abaa" stroke-width="1.51"/><path d="M1630,83L1790,117L1830,-7Z" fill="#7ea5a8" stroke="#7ea5a8" stroke-width="1.51"/><path d="M1680,-94L1630,83L1830,-7Z" fill="#83a9ac" stroke="#83a9ac" stroke-width="1.51"/><path d="M1640,403L1774,500L1779,337Z" fill="#5695a1" stroke="#5695a1" stroke-width="1.51"/><path d="M1790,117L1642,223L1821,224Z" fill="#739fa5" stroke="#739fa5" stroke-width="1.51"/><path d="M1642,223L1779,337L1821,224Z" fill="#6b9ca3" stroke="#6b9ca3" stroke-width="1.51"/><path d="M1638,841L1624,979L1823,894Z" fill="#0f7e85" stroke="#0f7e85" stroke-width="1.51"/><path d="M1624,1177L1614,1280L1738,1149Z" fill="#046f65" stroke="#046f65" stroke-width="1.51"/><path d="M1627,507L1665,711L1740,697Z" fill="#348b9f" stroke="#348b9f" stroke-width="1.51"/><path d="M1665,711L1638,841L1740,697Z" fill="#24849a" stroke="#24849a" stroke-width="1.51"/><path d="M1627,507L1740,697L1774,500Z" fill="#3c8e9e" stroke="#3c8e9e" stroke-width="1.51"/><path d="M1630,83L1642,223L1790,117Z" fill="#79a4ab" stroke="#79a4ab" stroke-width="1.51"/><path d="M1640,403L1627,507L1774,500Z" fill="#4e94a3" stroke="#4e94a3" stroke-width="1.51"/><path d="M1642,223L1640,403L1779,337Z" fill="#669ba7" stroke="#669ba7" stroke-width="1.51"/><path d="M1624,979L1738,1149L1772,1032Z" fill="#057671" stroke="#057671" stroke-width="1.51"/><path d="M1607,-209L1680,-94L1774,-207Z" fill="#8db1b3" stroke="#8db1b3" stroke-width="1.51"/><path d="M1624,979L1624,1177L1738,1149Z" fill="#05766f" stroke="#05766f" stroke-width="1.51"/><path d="M1046,1257L855,1293L1239,1281Z" fill="#347b85" stroke="#347b85" stroke-width="1.51"/><path d="M1624,979L1523,1123L1624,1177Z" fill="#057976" stroke="#057976" stroke-width="1.51"/><path d="M1535,409L1640,403L1642,223Z" fill="#649dad" stroke="#649dad" stroke-width="1.51"/><path d="M1472,261L1535,409L1642,223Z" fill="#6ca1b4" stroke="#6ca1b4" stroke-width="1.51"/><path d="M1627,507L1506,656L1665,711Z" fill="#368fa5" stroke="#368fa5" stroke-width="1.51"/><path d="M1480,-32L1630,83L1680,-94Z" fill="#87adb7" stroke="#87adb7" stroke-width="1.51"/><path d="M1607,-209L1480,-32L1680,-94Z" fill="#8db2ba" stroke="#8db2ba" stroke-width="1.51"/><path d="M1515,865L1518,956L1624,979Z" fill="#09828d" stroke="#09828d" stroke-width="1.51"/><path d="M1475,580L1506,656L1627,507Z" fill="#3e93ad" stroke="#3e93ad" stroke-width="1.51"/><path d="M1515,865L1624,979L1638,841Z" fill="#10828f" stroke="#10828f" stroke-width="1.51"/><path d="M1506,656L1515,865L1638,841Z" fill="#1f87a0" stroke="#1f87a0" stroke-width="1.51"/><path d="M1506,656L1638,841L1665,711Z" fill="#2688a2" stroke="#2688a2" stroke-width="1.51"/><path d="M1464,-200L1480,-32L1607,-209Z" fill="#91b5c2" stroke="#91b5c2" stroke-width="1.51"/><path d="M1518,956L1523,1123L1624,979Z" fill="#057d82" stroke="#057d82" stroke-width="1.51"/><path d="M1535,409L1627,507L1640,403Z" fill="#5498ab" stroke="#5498ab" stroke-width="1.51"/><path d="M1630,83L1450,133L1642,223Z" fill="#7ba7b5" stroke="#7ba7b5" stroke-width="1.51"/><path d="M1450,133L1472,261L1642,223Z" fill="#77a6b9" stroke="#77a6b9" stroke-width="1.51"/><path d="M1494,1295L1614,1280L1624,1177Z" fill="#056d67" stroke="#056d67" stroke-width="1.51"/><path d="M1523,1123L1494,1295L1624,1177Z" fill="#06736e" stroke="#06736e" stroke-width="1.51"/><path d="M1480,-32L1450,133L1630,83Z" fill="#84acbc" stroke="#84acbc" stroke-width="1.51"/><path d="M1535,409L1475,580L1627,507Z" fill="#4a97ae" stroke="#4a97ae" stroke-width="1.51"/><path d="M33,-206L281,-188L687,-260Z" fill="#e5e1ef" stroke="#e5e1ef" stroke-width="1.51"/><path d="M1464,-200L1369,-84L1480,-32Z" fill="#94b5c8" stroke="#94b5c8" stroke-width="1.51"/><path d="M1506,656L1357,711L1515,865Z" fill="#2b8bae" stroke="#2b8bae" stroke-width="1.51"/><path d="M1344,1275L1494,1295L1523,1123Z" fill="#137273" stroke="#137273" stroke-width="1.51"/><path d="M1319,1153L1344,1275L1523,1123Z" fill="#19787d" stroke="#19787d" stroke-width="1.51"/><path d="M1518,956L1309,1012L1523,1123Z" fill="#14808a" stroke="#14808a" stroke-width="1.51"/><path d="M1381,423L1475,580L1535,409Z" fill="#549bb7" stroke="#549bb7" stroke-width="1.51"/><path d="M1472,261L1381,423L1535,409Z" fill="#66a0ba" stroke="#66a0ba" stroke-width="1.51"/><path d="M1357,711L1302,786L1515,865Z" fill="#2b8cae" stroke="#2b8cae" stroke-width="1.51"/><path d="M1515,865L1309,1012L1518,956Z" fill="#158595" stroke="#158595" stroke-width="1.51"/><path d="M1309,1012L1319,1153L1523,1123Z" fill="#1b7e88" stroke="#1b7e88" stroke-width="1.51"/><path d="M1302,786L1309,1012L1515,865Z" fill="#2288a3" stroke="#2288a3" stroke-width="1.51"/><path d="M1475,580L1357,711L1506,656Z" fill="#3992b2" stroke="#3992b2" stroke-width="1.51"/><path d="M1330,259L1381,423L1472,261Z" fill="#71a4c2" stroke="#71a4c2" stroke-width="1.51"/><path d="M1381,423L1304,487L1475,580Z" fill="#539bbd" stroke="#539bbd" stroke-width="1.51"/><path d="M1294,70L1450,133L1480,-32Z" fill="#8bb0c7" stroke="#8bb0c7" stroke-width="1.51"/><path d="M1450,133L1330,259L1472,261Z" fill="#7ba8c2" stroke="#7ba8c2" stroke-width="1.51"/><path d="M1369,-84L1294,70L1480,-32Z" fill="#91b3cb" stroke="#91b3cb" stroke-width="1.51"/><path d="M1317,-168L1369,-84L1464,-200Z" fill="#99b9ce" stroke="#99b9ce" stroke-width="1.51"/><path d="M1304,487L1357,711L1475,580Z" fill="#4596ba" stroke="#4596ba" stroke-width="1.51"/><path d="M1304,487L1221,587L1357,711Z" fill="#4998c2" stroke="#4998c2" stroke-width="1.51"/><path d="M1294,70L1330,259L1450,133Z" fill="#85acc9" stroke="#85acc9" stroke-width="1.51"/><path d="M39,1288L-218,1340L186,1283Z" fill="#7f9994" stroke="#7f9994" stroke-width="1.51"/><path d="M894,-265L1071,-172L1181,-173Z" fill="#aec8e1" stroke="#aec8e1" stroke-width="1.51"/><path d="M1302,786L1188,819L1309,1012Z" fill="#2b8caf" stroke="#2b8caf" stroke-width="1.51"/><path d="M1188,819L1201,993L1309,1012Z" fill="#298aa7" stroke="#298aa7" stroke-width="1.51"/><path d="M1133,395L1304,487L1330,259Z" fill="#6ea4cc" stroke="#6ea4cc" stroke-width="1.51"/><path d="M1294,70L1226,213L1330,259Z" fill="#86adcf" stroke="#86adcf" stroke-width="1.51"/><path d="M1221,587L1202,649L1357,711Z" fill="#4396c3" stroke="#4396c3" stroke-width="1.51"/><path d="M1211,-22L1294,70L1369,-84Z" fill="#96b4d3" stroke="#96b4d3" stroke-width="1.51"/><path d="M1330,259L1304,487L1381,423Z" fill="#68a2c5" stroke="#68a2c5" stroke-width="1.51"/><path d="M1240,88L1226,213L1294,70Z" fill="#8eb1d3" stroke="#8eb1d3" stroke-width="1.51"/><path d="M1317,-168L1211,-22L1369,-84Z" fill="#9bb8d5" stroke="#9bb8d5" stroke-width="1.51"/><path d="M1309,1012L1240,1145L1319,1153Z" fill="#238190" stroke="#238190" stroke-width="1.51"/><path d="M1319,1153L1239,1281L1344,1275Z" fill="#207581" stroke="#207581" stroke-width="1.51"/><path d="M1202,649L1302,786L1357,711Z" fill="#3991be" stroke="#3991be" stroke-width="1.51"/><path d="M1240,1145L1239,1281L1319,1153Z" fill="#237a87" stroke="#237a87" stroke-width="1.51"/><path d="M1226,213L1133,395L1330,259Z" fill="#7da9d0" stroke="#7da9d0" stroke-width="1.51"/><path d="M1181,-173L1211,-22L1317,-168Z" fill="#9fbbda" stroke="#9fbbda" stroke-width="1.51"/><path d="M1201,993L1240,1145L1309,1012Z" fill="#268499" stroke="#268499" stroke-width="1.51"/><path d="M1211,-22L1240,88L1294,70Z" fill="#94b4d6" stroke="#94b4d6" stroke-width="1.51"/><path d="M1202,649L1188,819L1302,786Z" fill="#3991c0" stroke="#3991c0" stroke-width="1.51"/><path d="M1133,395L1221,587L1304,487Z" fill="#5ea0ca" stroke="#5ea0ca" stroke-width="1.51"/><path d="M1133,395L1027,566L1221,587Z" fill="#5fa3cc" stroke="#5fa3cc" stroke-width="1.51"/><path d="M1045,277L1133,395L1226,213Z" fill="#82add2" stroke="#82add2" stroke-width="1.51"/><path d="M1090,102L1226,213L1240,88Z" fill="#91b3d5" stroke="#91b3d5" stroke-width="1.51"/><path d="M1211,-22L1090,102L1240,88Z" fill="#97b7d7" stroke="#97b7d7" stroke-width="1.51"/><path d="M1201,993L1038,1123L1240,1145Z" fill="#2f8596" stroke="#2f8596" stroke-width="1.51"/><path d="M1046,1257L1239,1281L1240,1145Z" fill="#2b7b86" stroke="#2b7b86" stroke-width="1.51"/><path d="M1038,1123L1046,1257L1240,1145Z" fill="#32838d" stroke="#32838d" stroke-width="1.51"/><path d="M1188,819L1032,877L1201,993Z" fill="#3690af" stroke="#3690af" stroke-width="1.51"/><path d="M1019,659L1188,819L1202,649Z" fill="#4797c5" stroke="#4797c5" stroke-width="1.51"/><path d="M1181,-173L1071,-172L1211,-22Z" fill="#a4bfdc" stroke="#a4bfdc" stroke-width="1.51"/><path d="M1090,102L1045,277L1226,213Z" fill="#8eb3d5" stroke="#8eb3d5" stroke-width="1.51"/><path d="M1071,-172L1009,-103L1211,-22Z" fill="#a7c0dd" stroke="#a7c0dd" stroke-width="1.51"/><path d="M1027,566L1202,649L1221,587Z" fill="#529dc8" stroke="#529dc8" stroke-width="1.51"/><path d="M1018,974L1038,1123L1201,993Z" fill="#368c9f" stroke="#368c9f" stroke-width="1.51"/><path d="M1032,877L1018,974L1201,993Z" fill="#3790aa" stroke="#3790aa" stroke-width="1.51"/><path d="M1009,-103L1090,102L1211,-22Z" fill="#a0bcdb" stroke="#a0bcdb" stroke-width="1.51"/><path d="M1027,566L1019,659L1202,649Z" fill="#559fc9" stroke="#559fc9" stroke-width="1.51"/><path d="M1019,659L1032,877L1188,819Z" fill="#4496bf" stroke="#4496bf" stroke-width="1.51"/><path d="M1045,277L987,443L1133,395Z" fill="#7cadd1" stroke="#7cadd1" stroke-width="1.51"/><path d="M987,443L1027,566L1133,395Z" fill="#6da8cf" stroke="#6da8cf" stroke-width="1.51"/><path d="M1009,-103L867,-45L1090,102Z" fill="#a7c2de" stroke="#a7c2de" stroke-width="1.51"/><path d="M867,-45L843,58L1090,102Z" fill="#a8c1dd" stroke="#a8c1dd" stroke-width="1.51"/><path d="M857,205L1045,277L1090,102Z" fill="#96b8d8" stroke="#96b8d8" stroke-width="1.51"/><path d="M843,58L857,205L1090,102Z" fill="#a2bedb" stroke="#a2bedb" stroke-width="1.51"/><path d="M281,-188L554,-209L687,-260Z" fill="#dbdbec" stroke="#dbdbec" stroke-width="1.51"/><path d="M840,729L846,818L1019,659Z" fill="#5a9fc9" stroke="#5a9fc9" stroke-width="1.51"/><path d="M1019,659L846,818L1032,877Z" fill="#4e9bc2" stroke="#4e9bc2" stroke-width="1.51"/><path d="M886,372L987,443L1045,277Z" fill="#83b1d4" stroke="#83b1d4" stroke-width="1.51"/><path d="M894,-265L1009,-103L1071,-172Z" fill="#b0c9e1" stroke="#b0c9e1" stroke-width="1.51"/><path d="M987,443L925,538L1027,566Z" fill="#6aa9cf" stroke="#6aa9cf" stroke-width="1.51"/><path d="M1018,974L886,1088L1038,1123Z" fill="#3e8e9e" stroke="#3e8e9e" stroke-width="1.51"/><path d="M1038,1123L886,1088L1046,1257Z" fill="#3c8992" stroke="#3c8992" stroke-width="1.51"/><path d="M886,1088L855,1293L1046,1257Z" fill="#40868e" stroke="#40868e" stroke-width="1.51"/><path d="M918,958L1018,974L1032,877Z" fill="#4094ad" stroke="#4094ad" stroke-width="1.51"/><path d="M857,205L886,372L1045,277Z" fill="#91b6d7" stroke="#91b6d7" stroke-width="1.51"/><path d="M918,958L886,1088L1018,974Z" fill="#4392a6" stroke="#4392a6" stroke-width="1.51"/><path d="M925,538L1019,659L1027,566Z" fill="#60a4cd" stroke="#60a4cd" stroke-width="1.51"/><path d="M846,818L918,958L1032,877Z" fill="#4b98b6" stroke="#4b98b6" stroke-width="1.51"/><path d="M894,-265L867,-45L1009,-103Z" fill="#b4c9e2" stroke="#b4c9e2" stroke-width="1.51"/><path d="M925,538L840,729L1019,659Z" fill="#61a4cc" stroke="#61a4cc" stroke-width="1.51"/><path d="M886,372L925,538L987,443Z" fill="#79aed2" stroke="#79aed2" stroke-width="1.51"/><path d="M716,531L745,713L840,729Z" fill="#72a8ce" stroke="#72a8ce" stroke-width="1.51"/><path d="M711,1184L855,1293L886,1088Z" fill="#4e8c92" stroke="#4e8c92" stroke-width="1.51"/><path d="M735,-79L867,-45L894,-265Z" fill="#bccce4" stroke="#bccce4" stroke-width="1.51"/><path d="M693,960L886,1088L918,958Z" fill="#5297a8" stroke="#5297a8" stroke-width="1.51"/><path d="M846,818L765,864L918,958Z" fill="#569bb8" stroke="#569bb8" stroke-width="1.51"/><path d="M716,531L840,729L925,538Z" fill="#71aad0" stroke="#71aad0" stroke-width="1.51"/><path d="M886,372L765,383L925,538Z" fill="#84b2d4" stroke="#84b2d4" stroke-width="1.51"/><path d="M765,383L716,531L925,538Z" fill="#82b1d4" stroke="#82b1d4" stroke-width="1.51"/><path d="M857,205L765,383L886,372Z" fill="#97b8d8" stroke="#97b8d8" stroke-width="1.51"/><path d="M687,-260L735,-79L894,-265Z" fill="#c5d2e7" stroke="#c5d2e7" stroke-width="1.51"/><path d="M765,864L693,960L918,958Z" fill="#599bb2" stroke="#599bb2" stroke-width="1.51"/><path d="M693,960L711,1184L886,1088Z" fill="#5895a0" stroke="#5895a0" stroke-width="1.51"/><path d="M683,224L765,383L857,205Z" fill="#a2bcdb" stroke="#a2bcdb" stroke-width="1.51"/><path d="M843,58L685,117L857,205Z" fill="#afc2de" stroke="#afc2de" stroke-width="1.51"/><path d="M735,-79L843,58L867,-45Z" fill="#b7c8e1" stroke="#b7c8e1" stroke-width="1.51"/><path d="M840,729L745,713L846,818Z" fill="#64a1c9" stroke="#64a1c9" stroke-width="1.51"/><path d="M711,1184L698,1302L855,1293Z" fill="#53878c" stroke="#53878c" stroke-width="1.51"/><path d="M685,117L683,224L857,205Z" fill="#aec2de" stroke="#aec2de" stroke-width="1.51"/><path d="M735,-79L685,117L843,58Z" fill="#b9c8e1" stroke="#b9c8e1" stroke-width="1.51"/><path d="M745,713L765,864L846,818Z" fill="#63a0c4" stroke="#63a0c4" stroke-width="1.51"/><path d="M629,982L638,1160L693,960Z" fill="#659ba7" stroke="#659ba7" stroke-width="1.51"/><path d="M693,960L638,1160L711,1184Z" fill="#60979e" stroke="#60979e" stroke-width="1.51"/><path d="M584,92L685,117L735,-79Z" fill="#c0cae3" stroke="#c0cae3" stroke-width="1.51"/><path d="M716,531L636,556L745,713Z" fill="#7faed2" stroke="#7faed2" stroke-width="1.51"/><path d="M636,556L572,644L745,713Z" fill="#80add2" stroke="#80add2" stroke-width="1.51"/><path d="M640,265L529,339L765,383Z" fill="#a7bddb" stroke="#a7bddb" stroke-width="1.51"/><path d="M636,556L716,531L765,383Z" fill="#8bb4d6" stroke="#8bb4d6" stroke-width="1.51"/><path d="M529,339L636,556L765,383Z" fill="#9ab9d9" stroke="#9ab9d9" stroke-width="1.51"/><path d="M683,224L640,265L765,383Z" fill="#a7bedc" stroke="#a7bedc" stroke-width="1.51"/><path d="M745,713L560,882L765,864Z" fill="#6da3c3" stroke="#6da3c3" stroke-width="1.51"/><path d="M560,882L693,960L765,864Z" fill="#69a0b8" stroke="#69a0b8" stroke-width="1.51"/><path d="M531,-115L584,92L735,-79Z" fill="#c9cfe6" stroke="#c9cfe6" stroke-width="1.51"/><path d="M687,-260L554,-209L735,-79Z" fill="#ced5e8" stroke="#ced5e8" stroke-width="1.51"/><path d="M554,-209L531,-115L735,-79Z" fill="#d0d4e8" stroke="#d0d4e8" stroke-width="1.51"/><path d="M572,644L560,882L745,713Z" fill="#78a7ce" stroke="#78a7ce" stroke-width="1.51"/><path d="M560,882L629,982L693,960Z" fill="#6aa1b4" stroke="#6aa1b4" stroke-width="1.51"/><path d="M638,1160L698,1302L711,1184Z" fill="#5c8e92" stroke="#5c8e92" stroke-width="1.51"/><path d="M638,1160L538,1288L698,1302Z" fill="#5f8c8f" stroke="#5f8c8f" stroke-width="1.51"/><path d="M584,92L683,224L685,117Z" fill="#bac6e0" stroke="#bac6e0" stroke-width="1.51"/><path d="M584,92L640,265L683,224Z" fill="#b6c5df" stroke="#b6c5df" stroke-width="1.51"/><path d="M529,339L448,511L636,556Z" fill="#9cbad9" stroke="#9cbad9" stroke-width="1.51"/><path d="M281,-188L422,-156L554,-209Z" fill="#dfdded" stroke="#dfdded" stroke-width="1.51"/><path d="M430,835L560,882L572,644Z" fill="#7ea9ca" stroke="#7ea9ca" stroke-width="1.51"/><path d="M394,1012L472,1169L629,982Z" fill="#709fa7" stroke="#709fa7" stroke-width="1.51"/><path d="M629,982L472,1169L638,1160Z" fill="#689aa0" stroke="#689aa0" stroke-width="1.51"/><path d="M472,1169L538,1288L638,1160Z" fill="#679395" stroke="#679395" stroke-width="1.51"/><path d="M584,92L420,268L640,265Z" fill="#bbc6e0" stroke="#bbc6e0" stroke-width="1.51"/><path d="M420,268L529,339L640,265Z" fill="#b4c3de" stroke="#b4c3de" stroke-width="1.51"/><path d="M448,511L572,644L636,556Z" fill="#8eb4d6" stroke="#8eb4d6" stroke-width="1.51"/><path d="M33,-206L86,-190L281,-188Z" fill="#eee6f2" stroke="#eee6f2" stroke-width="1.51"/><path d="M560,882L394,1012L629,982Z" fill="#71a3b3" stroke="#71a3b3" stroke-width="1.51"/><path d="M402,691L430,835L572,644Z" fill="#87aed2" stroke="#87aed2" stroke-width="1.51"/><path d="M381,141L420,268L584,92Z" fill="#c5cbe3" stroke="#c5cbe3" stroke-width="1.51"/><path d="M531,-115L400,-67L584,92Z" fill="#d1d2e8" stroke="#d1d2e8" stroke-width="1.51"/><path d="M400,-67L381,141L584,92Z" fill="#cfd1e6" stroke="#cfd1e6" stroke-width="1.51"/><path d="M425,352L448,511L529,339Z" fill="#aac0dd" stroke="#aac0dd" stroke-width="1.51"/><path d="M430,835L394,1012L560,882Z" fill="#79a7bb" stroke="#79a7bb" stroke-width="1.51"/><path d="M448,511L402,691L572,644Z" fill="#90b4d6" stroke="#90b4d6" stroke-width="1.51"/><path d="M472,1169L455,1285L538,1288Z" fill="#699192" stroke="#699192" stroke-width="1.51"/><path d="M422,-156L531,-115L554,-209Z" fill="#d8d8eb" stroke="#d8d8eb" stroke-width="1.51"/><path d="M420,268L425,352L529,339Z" fill="#b6c4df" stroke="#b6c4df" stroke-width="1.51"/><path d="M422,-156L400,-67L531,-115Z" fill="#d9d8ea" stroke="#d9d8ea" stroke-width="1.51"/><path d="M304,1037L271,1134L394,1012Z" fill="#7ba4aa" stroke="#7ba4aa" stroke-width="1.51"/><path d="M337,557L330,639L402,691Z" fill="#97b7d8" stroke="#97b7d8" stroke-width="1.51"/><path d="M337,557L402,691L448,511Z" fill="#98b9d9" stroke="#98b9d9" stroke-width="1.51"/><path d="M394,1012L271,1134L472,1169Z" fill="#77a0a3" stroke="#77a0a3" stroke-width="1.51"/><path d="M309,1283L455,1285L472,1169Z" fill="#6f9493" stroke="#6f9493" stroke-width="1.51"/><path d="M271,1134L309,1283L472,1169Z" fill="#759b99" stroke="#759b99" stroke-width="1.51"/><path d="M250,47L381,141L400,-67Z" fill="#d7d5e9" stroke="#d7d5e9" stroke-width="1.51"/><path d="M252,391L337,557L425,352Z" fill="#afc2de" stroke="#afc2de" stroke-width="1.51"/><path d="M253,838L394,1012L430,835Z" fill="#82abbf" stroke="#82abbf" stroke-width="1.51"/><path d="M425,352L337,557L448,511Z" fill="#a5bedc" stroke="#a5bedc" stroke-width="1.51"/><path d="M253,838L304,1037L394,1012Z" fill="#7fa9b6" stroke="#7fa9b6" stroke-width="1.51"/><path d="M381,141L281,257L420,268Z" fill="#c7cce4" stroke="#c7cce4" stroke-width="1.51"/><path d="M304,-112L400,-67L422,-156Z" fill="#dfdaeb" stroke="#dfdaeb" stroke-width="1.51"/><path d="M420,268L281,257L425,352Z" fill="#bfc8e1" stroke="#bfc8e1" stroke-width="1.51"/><path d="M402,691L253,838L430,835Z" fill="#8aafcd" stroke="#8aafcd" stroke-width="1.51"/><path d="M281,257L252,391L425,352Z" fill="#bdc8e1" stroke="#bdc8e1" stroke-width="1.51"/><path d="M281,-188L304,-112L422,-156Z" fill="#e3dded" stroke="#e3dded" stroke-width="1.51"/><path d="M304,-112L250,47L400,-67Z" fill="#ded9ea" stroke="#ded9ea" stroke-width="1.51"/><path d="M330,639L253,838L402,691Z" fill="#91b3d5" stroke="#91b3d5" stroke-width="1.51"/><path d="M176,111L281,257L381,141Z" fill="#d0d1e7" stroke="#d0d1e7" stroke-width="1.51"/><path d="M250,47L176,111L381,141Z" fill="#d7d4e8" stroke="#d7d4e8" stroke-width="1.51"/><path d="M253,838L125,886L304,1037Z" fill="#86adbd" stroke="#86adbd" stroke-width="1.51"/><path d="M165,-54L250,47L304,-112Z" fill="#e1dbec" stroke="#e1dbec" stroke-width="1.51"/><path d="M112,726L253,838L330,639Z" fill="#95b4d6" stroke="#95b4d6" stroke-width="1.51"/><path d="M185,586L112,726L330,639Z" fill="#9dbbd9" stroke="#9dbbd9" stroke-width="1.51"/><path d="M185,586L330,639L337,557Z" fill="#9ebbda" stroke="#9ebbda" stroke-width="1.51"/><path d="M252,391L185,586L337,557Z" fill="#a8c1dd" stroke="#a8c1dd" stroke-width="1.51"/><path d="M181,401L185,586L252,391Z" fill="#b2c5e0" stroke="#b2c5e0" stroke-width="1.51"/><path d="M271,1134L186,1283L309,1283Z" fill="#789997" stroke="#789997" stroke-width="1.51"/><path d="M125,886L93,964L304,1037Z" fill="#86aeb9" stroke="#86aeb9" stroke-width="1.51"/><path d="M93,964L134,1095L304,1037Z" fill="#84aab0" stroke="#84aab0" stroke-width="1.51"/><path d="M176,111L122,202L281,257Z" fill="#d2d2e7" stroke="#d2d2e7" stroke-width="1.51"/><path d="M134,1095L271,1134L304,1037Z" fill="#7fa5a7" stroke="#7fa5a7" stroke-width="1.51"/><path d="M281,-188L165,-54L304,-112Z" fill="#e5deee" stroke="#e5deee" stroke-width="1.51"/><path d="M134,1095L186,1283L271,1134Z" fill="#7da19e" stroke="#7da19e" stroke-width="1.51"/><path d="M86,-190L165,-54L281,-188Z" fill="#e9e2f0" stroke="#e9e2f0" stroke-width="1.51"/><path d="M181,401L252,391L281,257Z" fill="#bfc9e2" stroke="#bfc9e2" stroke-width="1.51"/><path d="M122,202L181,401L281,257Z" fill="#c8cee5" stroke="#c8cee5" stroke-width="1.51"/><path d="M112,726L125,886L253,838Z" fill="#91b3cd" stroke="#91b3cd" stroke-width="1.51"/><path d="M165,-54L176,111L250,47Z" fill="#ded9ea" stroke="#ded9ea" stroke-width="1.51"/><path d="M165,-54L3,46L176,111Z" fill="#e2dced" stroke="#e2dced" stroke-width="1.51"/><path d="M122,202L-53,411L181,401Z" fill="#c8cfe5" stroke="#c8cfe5" stroke-width="1.51"/><path d="M181,401L19,530L185,586Z" fill="#afc5e0" stroke="#afc5e0" stroke-width="1.51"/><path d="M19,530L112,726L185,586Z" fill="#a5bfdc" stroke="#a5bfdc" stroke-width="1.51"/><path d="M134,1095L39,1288L186,1283Z" fill="#7e9e9a" stroke="#7e9e9a" stroke-width="1.51"/><path d="M-53,411L19,530L181,401Z" fill="#bbcae2" stroke="#bbcae2" stroke-width="1.51"/><path d="M3,46L122,202L176,111Z" fill="#ddd9ea" stroke="#ddd9ea" stroke-width="1.51"/><path d="M-37,184L-53,411L122,202Z" fill="#d2d4e8" stroke="#d2d4e8" stroke-width="1.51"/><path d="M-63,1184L39,1288L134,1095Z" fill="#83a49f" stroke="#83a49f" stroke-width="1.51"/><path d="M86,-190L-42,-104L165,-54Z" fill="#ede3f1" stroke="#ede3f1" stroke-width="1.51"/><path d="M-42,-104L3,46L165,-54Z" fill="#e9e1ef" stroke="#e9e1ef" stroke-width="1.51"/><path d="M19,530L-30,719L112,726Z" fill="#a4bfdc" stroke="#a4bfdc" stroke-width="1.51"/><path d="M-30,719L-8,872L112,726Z" fill="#9bb8d5" stroke="#9bb8d5" stroke-width="1.51"/><path d="M3,46L-37,184L122,202Z" fill="#ded9eb" stroke="#ded9eb" stroke-width="1.51"/><path d="M112,726L-8,872L125,886Z" fill="#95b5cc" stroke="#95b5cc" stroke-width="1.51"/><path d="M93,964L-43,1014L134,1095Z" fill="#8aaeb3" stroke="#8aaeb3" stroke-width="1.51"/><path d="M-43,1014L-63,1184L134,1095Z" fill="#88abaa" stroke="#88abaa" stroke-width="1.51"/><path d="M-8,872L93,964L125,886Z" fill="#8fb2c2" stroke="#8fb2c2" stroke-width="1.51"/><path d="M33,-206L-42,-104L86,-190Z" fill="#f1e7f3" stroke="#f1e7f3" stroke-width="1.51"/><path d="M-8,872L-43,1014L93,964Z" fill="#8eb3bd" stroke="#8eb3bd" stroke-width="1.51"/><path d="M-154,259L-53,411L-37,184Z" fill="#d3d7ea" stroke="#d3d7ea" stroke-width="1.51"/><path d="M-153,595L-30,719L19,530Z" fill="#abc4df" stroke="#abc4df" stroke-width="1.51"/><path d="M-63,1184L-218,1340L39,1288Z" fill="#839f99" stroke="#839f99" stroke-width="1.51"/><path d="M-30,719L-130,787L-8,872Z" fill="#9cbbd4" stroke="#9cbbd4" stroke-width="1.51"/><path d="M-184,-213L-42,-104L33,-206Z" fill="#f5ebf5" stroke="#f5ebf5" stroke-width="1.51"/><path d="M-125,1044L-63,1184L-43,1014Z" fill="#8bafad" stroke="#8bafad" stroke-width="1.51"/><path d="M-42,-104L-139,-96L3,46Z" fill="#eee5f2" stroke="#eee5f2" stroke-width="1.51"/><path d="M-53,411L-153,595L19,530Z" fill="#b6cbe3" stroke="#b6cbe3" stroke-width="1.51"/><path d="M-216,136L-37,184L3,46Z" fill="#e3deed" stroke="#e3deed" stroke-width="1.51"/><path d="M-139,-96L-216,136L3,46Z" fill="#eae3f1" stroke="#eae3f1" stroke-width="1.51"/><path d="M-184,-213L-139,-96L-42,-104Z" fill="#f4ebf5" stroke="#f4ebf5" stroke-width="1.51"/><path d="M-125,1044L-43,1014L-8,872Z" fill="#8fb4ba" stroke="#8fb4ba" stroke-width="1.51"/><path d="M-130,787L-125,1044L-8,872Z" fill="#95b8c5" stroke="#95b8c5" stroke-width="1.51"/><path d="M-153,1168L-218,1340L-63,1184Z" fill="#86a59e" stroke="#86a59e" stroke-width="1.51"/><path d="M-125,1044L-153,1168L-63,1184Z" fill="#8aaea7" stroke="#8aaea7" stroke-width="1.51"/><path d="M-220,404L-153,595L-53,411Z" fill="#bed0e5" stroke="#bed0e5" stroke-width="1.51"/><path d="M-207,660L-130,787L-30,719Z" fill="#a4c0dd" stroke="#a4c0dd" stroke-width="1.51"/><path d="M-153,595L-207,660L-30,719Z" fill="#a9c4de" stroke="#a9c4de" stroke-width="1.51"/><path d="M-154,259L-220,404L-53,411Z" fill="#cdd5e9" stroke="#cdd5e9" stroke-width="1.51"/><path d="M-216,136L-154,259L-37,184Z" fill="#dedded" stroke="#dedded" stroke-width="1.51"/><path d="M-130,787L-207,660L-125,1044Z" fill="#9dbdd1" stroke="#9dbdd1" stroke-width="1.51"/><path d="M-207,660L-153,1168L-125,1044Z" fill="#93b8bf" stroke="#93b8bf" stroke-width="1.51"/><path d="M-207,660L-218,1340L-153,1168Z" fill="#90b4b3" stroke="#90b4b3" stroke-width="1.51"/><path d="M-184,-213L-216,136L-139,-96Z" fill="#f2e9f4" stroke="#f2e9f4" stroke-width="1.51"/><path d="M-220,404L-207,660L-153,595Z" fill="#b4cde4" stroke="#b4cde4" stroke-width="1.51"/><path d="M-216,136L-220,404L-154,259Z" fill="#d8dcec" stroke="#d8dcec" stroke-width="1.51"/><path d="M-220,404L-218,1340L-207,660Z" fill="#a0bfd5" stroke="#a0bfd5" stroke-width="1.51"/></svg>